# xmcd
#
# Track frame offsets:
#	182
#	16600
#	33655
#	45035
#	57642
#	70940
#	81880
#	91260
#	101387
#	112772
#	124082
#	134700
#	147392
#	162275
#	173765
#	191270
#
# Disc length: 2706
#
# Revision: 1
# Processed by: cddbd v1.5.1PL0 Copyright (c) Steve Scherf et al.
# Submitted via: EasyCDDAExtractor 4.5.0.2
# Normalized: r0:DSETVAR1,TDELIM( - )
#
DISCID=cc0a9010
DTITLE=Various Artist - Country Friends [CD2)
DYEAR=1900
DGENRE=Country
TTITLE0=Charlie Daniels - The Devil Went Down To Georgia
TTITLE1=Johnny Cash - A Boy Named Sue
TTITLE2=Marty Robbins - A White Sports Coat
TTITLE3=Hank Snow - I've Been Everywhere
TTITLE4=Hank Locklin - Please Help Me, I'm Falling
TTITLE5=Faron Young - Hello Walls
TTITLE6=Burl Ives - A Little Bitty Tear
TTITLE7=Bill Anderson - Happiness
TTITLE8=Don Gibson - Oh Lonesome Me
TTITLE9=Sonny James - Young Love
TTITLE10=Webb Pierce - More And More
TTITLE11=Ernest Tubbs and His Texas Troubadours - I Love You Because
TTITLE12=Slim Whitman - Indian Love Call
TTITLE13=Johnny Horton - The Battle Of New Orleans
TTITLE14=Wink Martindale - Deck Of Cards
TTITLE15=Tennessee Ernie Ford - Sixteen Tons
EXTD=
EXTT0=
EXTT1=
EXTT2=
EXTT3=
EXTT4=
EXTT5=
EXTT6=
EXTT7=
EXTT8=
EXTT9=
EXTT10=
EXTT11=
EXTT12=
EXTT13=
EXTT14=
EXTT15=
PLAYORDER=
